# This file uses meters as units for non-parametric coordinates.

mtllib YellToSee_SideWall.mtl
g default
v -19.076143 178.853088 -13.742742
v -19.076143 221.146896 -13.742742
v 1180.923796 221.146896 -13.742742
v 1180.923796 178.853088 -13.742742
v -19.076143 221.146896 3.578337
v -19.076143 210.574524 10.334265
v 1180.923796 210.574524 10.334265
v 1180.923796 221.146896 3.578337
v -19.076143 189.425491 10.334265
v -19.076143 178.853088 3.578337
v 1180.923796 178.853088 3.578337
v 1180.923796 189.425491 10.334265
vt 0.012838 0.922551
vt 0.490122 0.922551
vt 0.370813 0.954796
vt 0.132147 0.954796
vt 0.006633 0.885284
vt 0.006633 0.846547
vt 0.987571 0.846547
vt 0.987571 0.885284
vt 0.986471 0.898858
vt 0.986471 0.923204
vt 0.509187 0.923204
vt 0.509187 0.898858
vt 0.006633 0.270160
vt 0.987571 0.270160
vt 0.987571 0.649903
vt 0.006633 0.649903
vt 0.006633 0.073515
vt 0.987571 0.073515
vt 0.867162 0.955449
vt 0.628496 0.955449
vt 0.490122 0.898206
vt 0.012838 0.898206
vt 0.006633 0.050329
vt 0.987571 0.051557
vn -1.000000 0.000000 0.000000
vn -1.000000 0.000000 0.000000
vn -1.000000 0.000000 0.000000
vn -1.000000 0.000000 0.000000
vn 0.000000 1.000000 0.000000
vn 0.000000 1.000000 0.000000
vn 0.000000 1.000000 0.000000
vn 0.000000 1.000000 0.000000
vn 1.000000 0.000000 -0.000000
vn 1.000000 0.000000 -0.000000
vn 1.000000 0.000000 -0.000000
vn 1.000000 0.000000 -0.000000
vn 0.000000 0.000000 1.000000
vn 0.000000 0.000000 1.000000
vn 0.000000 0.000000 1.000000
vn 0.000000 0.000000 1.000000
vn 0.000000 0.538466 0.842647
vn 0.000000 0.538466 0.842647
vn 0.000000 0.538466 0.842647
vn 0.000000 0.538466 0.842647
vn 0.000000 -0.538465 0.842648
vn 0.000000 -0.538465 0.842648
vn 0.000000 -0.538465 0.842648
vn 0.000000 -0.538465 0.842648
vn 1.000000 0.000000 -0.000005
vn 1.000000 0.000000 -0.000005
vn -1.000000 0.000000 0.000000
vn -1.000000 0.000000 0.000000
vn 0.000000 -1.000000 0.000000
vn 0.000000 -1.000000 0.000000
vn 0.000000 -1.000000 0.000000
vn 0.000000 -1.000000 0.000000
s 1
g polySurface4 Base_board2
usemtl initialShadingGroup
f 5/1/1 10/2/2 9/3/3 6/4/4
s off
f 2/5/5 5/6/6 8/7/7 3/8/8
s 2
f 3/9/9 8/10/10 11/11/11 4/12/12
s off
f 9/13/13 12/14/14 7/15/15 6/16/16
f 5/6/17 6/16/18 7/15/19 8/7/20
f 9/13/21 10/17/22 11/18/23 12/14/24
s 2
f 11/11/11 8/10/10 7/19/25 12/20/26
s 1
f 1/21/27 10/2/2 5/1/1 2/22/28
s off
f 11/18/29 10/17/30 1/23/31 4/24/32
g default
v -19.076204 500.000000 0.445711
v -19.076204 499.999969 -57.933241
v 1180.923796 500.000000 0.445711
v 1180.923796 499.999969 -57.933241
v -19.076204 221.108063 0.445715
v -19.076204 221.108032 -57.933241
v 1180.923796 221.108032 -57.933241
v 1180.923796 221.108063 0.445715
vt 0.055396 0.458204
vt 0.944604 0.458204
vt 0.944604 0.499729
vt 0.055396 0.499729
vt 0.055396 0.272952
vt 0.013870 0.458204
vt 0.013870 0.272952
vt 0.608444 0.915165
vt 0.944403 0.915165
vt 0.944403 0.985156
vt 0.608444 0.985156
vt 0.944604 0.272952
vt 0.986130 0.272952
vt 0.986130 0.458204
vn -0.000000 1.000000 -0.000001
vn -0.000000 1.000000 -0.000001
vn -0.000000 1.000000 -0.000001
vn -0.000000 1.000000 -0.000001
vn -1.000000 0.000000 -0.000000
vn -1.000000 0.000000 -0.000000
vn -1.000000 0.000000 -0.000000
vn -1.000000 0.000000 -0.000000
vn -0.000000 0.000000 -1.000000
vn -0.000000 0.000000 -1.000000
vn -0.000000 0.000000 -1.000000
vn -0.000000 0.000000 -1.000000
vn 1.000000 0.000000 0.000000
vn 1.000000 0.000000 0.000000
vn 1.000000 0.000000 0.000000
vn 1.000000 0.000000 0.000000
vn 0.000000 0.000000 1.000000
vn 0.000000 0.000000 1.000000
vn 0.000000 0.000000 1.000000
vn 0.000000 0.000000 1.000000
s off
g Base_board2 polySurface3
usemtl initialShadingGroup
f 13/25/33 15/26/34 16/27/35 14/28/36
f 17/29/37 13/25/38 14/30/39 18/31/40
f 19/32/41 18/33/42 14/34/43 16/35/44
f 15/26/45 20/36/46 19/37/47 16/38/48
f 17/29/49 20/36/50 15/26/51 13/25/52
g default
v 1180.923796 44.474548 -58.135527
v 1180.923796 44.474548 3.578337
v -19.076143 44.474548 3.578337
v -19.076143 44.474548 -58.135527
v 1180.923796 178.853088 -58.135527
v 1180.923796 178.853088 3.578337
v -19.076143 178.853088 3.578337
v -19.076143 178.853088 -58.135527
vt 0.489043 0.019693
vt 0.489043 0.177631
vt 0.179747 0.177631
vt 0.179747 0.019693
vt 0.646982 0.990760
vt 0.489043 0.990760
vt 0.646982 0.177631
vt 0.179747 0.990760
vt 0.021809 0.990760
vt 0.021809 0.177631
vt 0.977783 0.832821
vt 0.668487 0.832821
vt 0.668487 0.019693
vt 0.977783 0.019693
vn 0.000000 -1.000000 0.000000
vn 0.000000 -1.000000 0.000000
vn 0.000000 -1.000000 0.000000
vn 0.000000 -1.000000 0.000000
vn 1.000000 0.000000 -0.000000
vn 1.000000 0.000000 -0.000000
vn 1.000000 0.000000 -0.000000
vn 1.000000 0.000000 -0.000000
vn 0.000000 0.000000 1.000000
vn 0.000000 0.000000 1.000000
vn 0.000000 0.000000 1.000000
vn 0.000000 0.000000 1.000000
vn -1.000000 0.000000 0.000000
vn -1.000000 0.000000 0.000000
vn -1.000000 0.000000 0.000000
vn -1.000000 0.000000 0.000000
vn -0.000000 0.000000 -1.000000
vn -0.000000 0.000000 -1.000000
vn -0.000000 0.000000 -1.000000
vn -0.000000 0.000000 -1.000000
s off
g Base_board2 polySurface2
usemtl initialShadingGroup
f 21/39/53 22/40/54 23/41/55 24/42/56
f 25/43/57 26/44/58 22/40/59 21/45/60
f 26/44/61 27/46/62 23/41/63 22/40/64
f 27/46/65 28/47/66 24/48/67 23/41/68
f 28/49/69 25/50/70 21/51/71 24/52/72
g default
v -19.076204 43.198311 2.610895
v -19.076204 43.198311 19.363310
v -19.076204 60.822968 2.610895
v 1180.923796 60.822968 2.610895
v 1180.923796 43.198311 2.610895
v 1180.923796 43.198311 19.363310
v -19.076204 59.883980 11.499328
v -19.076204 51.063866 19.363310
v 1180.923796 51.063866 19.363310
v 1180.923796 59.883980 11.499328
v 1180.923796 54.555023 18.400307
v 1180.923796 58.771530 14.521976
v -19.076204 58.771530 14.521976
v -19.076204 54.555023 18.400307
v -19.076204 56.831867 16.692953
v 1180.923796 56.831867 16.692953
vt 1.000000 0.012681
vt 0.987408 0.023755
vt 0.985969 0.017467
vt 0.985581 0.014520
vt 0.985525 0.012184
vt 0.985588 0.009793
vt 0.985935 0.007173
vt 0.987545 0.000022
vt 0.014069 0.007172
vt 0.012450 0.000000
vt 0.014417 0.009794
vt 0.014481 0.012184
vt 0.014425 0.014521
vt 0.014035 0.017469
vt 0.012587 0.023773
vt 0.000000 0.012682
vn -1.000000 0.000000 0.000000
vn -1.000000 0.000000 0.000000
vn -1.000000 0.000000 0.000000
vn -1.000000 0.000000 0.000000
vn -1.000000 0.000000 0.000000
vn -1.000000 0.000000 0.000000
vn -1.000000 0.000000 0.000000
vn -1.000000 0.000000 0.000000
vn 0.000000 0.994466 0.105057
vn 0.000000 0.985491 0.169730
vn 0.000000 0.985491 0.169730
vn 0.000000 0.994466 0.105057
vn 1.000000 0.000000 -0.000000
vn 1.000000 0.000000 -0.000000
vn 1.000000 0.000000 -0.000000
vn 1.000000 0.000000 -0.000000
vn 1.000000 0.000000 -0.000000
vn 1.000000 0.000000 -0.000000
vn 1.000000 0.000000 -0.000000
vn 1.000000 0.000000 -0.000000
vn 0.000000 0.000000 1.000000
vn 0.000000 0.000000 1.000000
vn 0.000000 0.084493 0.996424
vn 0.000000 0.084493 0.996424
vn 0.000000 0.420122 0.907468
vn 0.000000 0.420122 0.907468
vn 0.000000 0.862149 0.506655
vn 0.000000 0.862149 0.506655
vn 0.000000 0.676976 0.736005
vn 0.000000 0.676976 0.736005
s off
g Base_board2 polySurface1
usemtl initialShadingGroup
f 29/53/73 30/54/74 36/55/75 42/56/76 43/57/77 41/58/78 35/59/79 31/60/80
s 1
f 31/60/81 35/59/82 38/61/83 32/62/84
s off
f 32/62/85 38/61/86 40/63/87 44/64/88 39/65/89 37/66/90 34/67/91 33/68/92
s 1
f 30/54/93 34/67/94 37/66/95 36/55/96
f 39/65/97 42/56/98 36/55/96 37/66/95
f 35/59/82 41/58/99 40/63/100 38/61/83
f 44/64/101 40/63/100 41/58/99 43/57/102
f 39/65/97 44/64/101 43/57/102 42/56/98
